<mxfile host="app.diagrams.net" modified="2023-12-30T12:48:39.652Z" agent="Mozilla/5.0 (X11; Linux x86_64) AppleWebKit/537.36 (KHTML, like Gecko) Chrome/120.0.0.0 Safari/537.36" version="22.1.16" etag="dddsyI7vB7eabdG54yVD" type="github">
  <diagram name="Page-1" id="f_ubU6b-C9NsZ_72Fe37">
    <mxGraphModel>
      <root>
        <mxCell id="0" />
        <mxCell id="1" parent="0" />
      </root>
    </mxGraphModel>
  </diagram>
</mxfile>
